<svg width="210" height="49" viewBox="0 0 210 49" fill="none" xmlns="http://www.w3.org/2000/svg">
<path d="M7.63587 2.47982C9.14564 0.896168 11.2382 0 13.4262 0H196.574C198.762 0 200.854 0.896171 202.364 2.47983L207.79 8.17154C209.209 9.65937 210 11.6361 210 13.6917V26C210 30.4183 206.418 34 202 34H8C3.58172 34 0 30.4183 0 26V13.6917C0 11.6361 0.791273 9.65937 2.20969 8.17154L7.63587 2.47982Z" fill="#FFEFE9"/>
<path d="M7.63587 46.5202C9.14564 48.1038 11.2382 49 13.4262 49H196.574C198.762 49 200.854 48.1038 202.364 46.5202L207.79 40.8285C209.209 39.3406 210 37.3639 210 35.3083V23C210 18.5817 206.418 15 202 15H8C3.58172 15 0 18.5817 0 23V35.3083C0 37.3639 0.791273 39.3406 2.20969 40.8285L7.63587 46.5202Z" fill="#FFEFE9"/>
</svg>
