<svg width="192" height="51" viewBox="0 0 192 51" fill="none" xmlns="http://www.w3.org/2000/svg">
<path d="M46.6266 0.372803L35.7883 14.4117L24.95 0.372803H12.3659V24.2316L0 31.3602V44.4535L11.3475 51.0001L22.6223 44.4535V19.358H48.9543V24.2316L36.5884 31.3602V44.4535L47.8632 51.0001L59.2107 44.4535V0.372803H46.6266Z" fill="#F05E25"/>
<path d="M75.1602 38.372V15.172H103.48C104.547 15.172 105.507 15.4387 106.36 15.972C107.213 16.4787 107.893 17.1587 108.4 18.012C108.907 18.8654 109.16 19.7987 109.16 20.812V38.372H103.48V21.092C103.48 21.0387 103.453 20.9854 103.4 20.932C103.373 20.8787 103.32 20.852 103.24 20.852H95.2802C95.2002 20.852 95.1335 20.8787 95.0802 20.932C95.0535 20.9854 95.0402 21.0387 95.0402 21.092V38.372H89.3202V21.092C89.3202 21.0387 89.2935 20.9854 89.2402 20.932C89.1868 20.8787 89.1335 20.852 89.0802 20.852H81.0802C81.0268 20.852 80.9735 20.8787 80.9202 20.932C80.8935 20.9854 80.8802 21.0387 80.8802 21.092V38.372H75.1602Z" fill="white"/>
<path d="M119.782 38.372C118.768 38.372 117.835 38.1187 116.982 37.612C116.128 37.0787 115.435 36.3854 114.902 35.532C114.395 34.6787 114.142 33.7454 114.142 32.732V20.812C114.142 19.7987 114.395 18.8654 114.902 18.012C115.435 17.1587 116.128 16.4787 116.982 15.972C117.835 15.4387 118.768 15.172 119.782 15.172H132.022C133.062 15.172 134.008 15.4387 134.862 15.972C135.715 16.4787 136.395 17.1587 136.902 18.012C137.408 18.8654 137.662 19.7987 137.662 20.812V32.732C137.662 33.7454 137.408 34.6787 136.902 35.532C136.395 36.3854 135.715 37.0787 134.862 37.612C134.008 38.1187 133.062 38.372 132.022 38.372H119.782ZM120.062 32.692H131.742C131.795 32.692 131.848 32.6654 131.902 32.612C131.955 32.5587 131.982 32.5054 131.982 32.452V21.092C131.982 21.0387 131.955 20.9854 131.902 20.932C131.848 20.8787 131.795 20.852 131.742 20.852H120.062C120.008 20.852 119.955 20.8787 119.902 20.932C119.848 20.9854 119.822 21.0387 119.822 21.092V32.452C119.822 32.5054 119.848 32.5587 119.902 32.612C119.955 32.6654 120.008 32.692 120.062 32.692Z" fill="white"/>
<path d="M146.459 38.372C145.445 38.372 144.512 38.1187 143.659 37.612C142.805 37.0787 142.112 36.3854 141.579 35.532C141.072 34.6787 140.819 33.7454 140.819 32.732V31.692H146.499V32.452C146.499 32.5054 146.525 32.5587 146.579 32.612C146.632 32.6654 146.685 32.692 146.739 32.692H158.419C158.472 32.692 158.525 32.6654 158.579 32.612C158.632 32.5587 158.659 32.5054 158.659 32.452V29.852C158.659 29.7987 158.632 29.7587 158.579 29.732C158.525 29.6787 158.472 29.652 158.419 29.652H146.459C145.445 29.652 144.512 29.3987 143.659 28.892C142.805 28.3587 142.112 27.6654 141.579 26.812C141.072 25.9587 140.819 25.012 140.819 23.972V20.812C140.819 19.7987 141.072 18.8654 141.579 18.012C142.112 17.1587 142.805 16.4787 143.659 15.972C144.512 15.4387 145.445 15.172 146.459 15.172H158.699C159.739 15.172 160.685 15.4387 161.539 15.972C162.392 16.4787 163.072 17.1587 163.579 18.012C164.112 18.8654 164.379 19.7987 164.379 20.812V21.852H158.659V21.092C158.659 21.0387 158.632 20.9854 158.579 20.932C158.525 20.8787 158.472 20.852 158.419 20.852H146.739C146.685 20.852 146.632 20.8787 146.579 20.932C146.525 20.9854 146.499 21.0387 146.499 21.092V23.692C146.499 23.7454 146.525 23.7987 146.579 23.852C146.632 23.8787 146.685 23.892 146.739 23.892H158.699C159.739 23.892 160.685 24.1587 161.539 24.692C162.392 25.1987 163.072 25.8787 163.579 26.732C164.112 27.5854 164.379 28.532 164.379 29.572V32.732C164.379 33.7454 164.112 34.6787 163.579 35.532C163.072 36.3854 162.392 37.0787 161.539 37.612C160.685 38.1187 159.739 38.372 158.699 38.372H146.459Z" fill="white"/>
<path d="M168.48 38.372V7.57202H174.16V15.172H186.36C187.374 15.172 188.307 15.4387 189.16 15.972C190.014 16.4787 190.694 17.1587 191.2 18.012C191.734 18.8654 192 19.7987 192 20.812V38.372H186.32V21.092C186.32 21.0387 186.294 20.9854 186.24 20.932C186.214 20.8787 186.16 20.852 186.08 20.852H174.4C174.347 20.852 174.294 20.8787 174.24 20.932C174.187 20.9854 174.16 21.0387 174.16 21.092V38.372H168.48Z" fill="white"/>
</svg>
