<svg width="298" height="213" viewBox="0 0 298 213" fill="none" xmlns="http://www.w3.org/2000/svg">
<g opacity="0.2">
<rect width="4.00575" height="18.199" transform="matrix(-1 0 0 1 259.041 97.1328)" fill="#F5F5F5"/>
<rect width="4.00802" height="75.7405" transform="matrix(-1 0 0 1 233.283 68.3633)" fill="#F5F5F5"/>
<rect width="4.0061" height="121.315" transform="matrix(-1 0 0 1 207.523 45.5742)" fill="#F5F5F5"/>
<rect width="4.00838" height="166.889" transform="matrix(-1 0 0 1 181.764 22.7891)" fill="#F5F5F5"/>
<rect width="4.00592" height="212.464" transform="matrix(-1 0 0 1 156.004 0)" fill="#F5F5F5"/>
<rect width="4.00802" height="166.889" transform="matrix(-1 0 0 1 130.244 22.7891)" fill="#F5F5F5"/>
<rect width="4.00836" height="121.315" transform="matrix(-1 0 0 1 117.365 45.5742)" fill="#F5F5F5"/>
<rect width="4.00836" height="75.7405" transform="matrix(-1 0 0 1 104.484 68.3633)" fill="#F5F5F5"/>
<rect width="4.00732" height="18.1988" transform="matrix(-1 0 0 1 297.682 97.1328)" fill="#F5F5F5"/>
<rect width="4.00837" height="46.9691" transform="matrix(-1 0 0 1 284.803 82.75)" fill="#F5F5F5"/>
<rect width="4.00802" height="75.7405" transform="matrix(-1 0 0 1 271.922 68.3633)" fill="#F5F5F5"/>
<rect width="4.00802" height="166.889" transform="matrix(-1 0 0 1 246.164 22.7891)" fill="#F5F5F5"/>
<rect width="4.00837" height="212.464" transform="matrix(-1 0 0 1 220.402 0)" fill="#F5F5F5"/>
<rect width="4.00838" height="166.889" transform="matrix(-1 0 0 1 194.645 22.7891)" fill="#F5F5F5"/>
<rect width="4.00802" height="121.315" transform="matrix(-1 0 0 1 168.883 45.5742)" fill="#F5F5F5"/>
<rect width="4.00802" height="75.7405" transform="matrix(-1 0 0 1 143.125 68.3633)" fill="#F5F5F5"/>
<rect width="4.00836" height="30.1654" transform="matrix(-1 0 0 1 91.6055 91.1523)" fill="#F5F5F5"/>
<rect width="4.00836" height="75.7405" transform="matrix(-1 0 0 1 78.7266 68.3633)" fill="#F5F5F5"/>
<rect width="4.00802" height="75.7405" transform="matrix(-1 0 0 1 52.9648 68.3633)" fill="#F5F5F5"/>
<rect width="4.00836" height="121.315" transform="matrix(-1 0 0 1 65.8457 45.5742)" fill="#F5F5F5"/>
<rect width="4.00819" height="212.464" transform="matrix(-1 0 0 1 40.0879 0)" fill="#F5F5F5"/>
<rect width="4.00802" height="166.889" transform="matrix(-1 0 0 1 27.207 22.7891)" fill="#F5F5F5"/>
<rect width="4.00836" height="75.7405" transform="matrix(-1 0 0 1 1.44531 68.3633)" fill="#F5F5F5"/>
<rect width="4.00802" height="30.1654" transform="matrix(-1 0 0 1 14.3262 91.1523)" fill="#F5F5F5"/>
</g>
</svg>
