<svg width="131" height="117" viewBox="0 0 131 117" fill="none" xmlns="http://www.w3.org/2000/svg">
<g opacity="0.2">
<rect width="2.34662" height="10.6612" transform="matrix(-1 0 0 1 106.145 52.9023)" fill="#F5F5F5"/>
<rect width="2.34795" height="44.3697" transform="matrix(-1 0 0 1 89.7344 36.0488)" fill="#F5F5F5"/>
<rect width="2.34682" height="71.068" transform="matrix(-1 0 0 1 73.3223 22.6973)" fill="#F5F5F5"/>
<rect width="2.34816" height="97.7658" transform="matrix(-1 0 0 1 56.9102 9.34961)" fill="#F5F5F5"/>
<rect width="2.34672" height="124.464" transform="matrix(-1 0 0 1 40.498 -4)" fill="#F5F5F5"/>
<rect width="2.34795" height="97.7658" transform="matrix(-1 0 0 1 24.0879 9.34961)" fill="#F5F5F5"/>
<rect width="2.34815" height="71.068" transform="matrix(-1 0 0 1 15.8828 22.6973)" fill="#F5F5F5"/>
<rect width="2.34815" height="44.3697" transform="matrix(-1 0 0 1 7.67578 36.0488)" fill="#F5F5F5"/>
<rect width="2.34754" height="10.6611" transform="matrix(-1 0 0 1 130.764 52.9023)" fill="#F5F5F5"/>
<rect width="2.34815" height="27.5151" transform="matrix(-1 0 0 1 122.559 44.4766)" fill="#F5F5F5"/>
<rect width="2.34795" height="44.3697" transform="matrix(-1 0 0 1 114.352 36.0488)" fill="#F5F5F5"/>
<rect width="2.34795" height="97.7658" transform="matrix(-1 0 0 1 97.9414 9.34961)" fill="#F5F5F5"/>
<rect width="2.34815" height="124.464" transform="matrix(-1 0 0 1 81.5293 -4)" fill="#F5F5F5"/>
<rect width="2.34816" height="97.7658" transform="matrix(-1 0 0 1 65.1172 9.34961)" fill="#F5F5F5"/>
<rect width="2.34795" height="71.068" transform="matrix(-1 0 0 1 48.7051 22.6973)" fill="#F5F5F5"/>
<rect width="2.34795" height="44.3697" transform="matrix(-1 0 0 1 32.293 36.0488)" fill="#F5F5F5"/>
</g>
</svg>
