<svg width="25" height="24" viewBox="0 0 25 24" fill="none" xmlns="http://www.w3.org/2000/svg">
<path opacity="0.4" d="M22.5 8.5H2.5M2.5 12.5H6.04668C6.58687 12.5 6.85696 12.5 7.11813 12.5466C7.34995 12.5879 7.5761 12.6563 7.79191 12.7506C8.03504 12.8567 8.25977 13.0065 8.70924 13.3062L9.29076 13.6938C9.74023 13.9935 9.96496 14.1433 10.2081 14.2494C10.4239 14.3437 10.65 14.4121 10.8819 14.4534C11.143 14.5 11.4131 14.5 11.9533 14.5H13.0467C13.5869 14.5 13.857 14.5 14.1181 14.4534C14.35 14.4121 14.5761 14.3437 14.7919 14.2494C15.035 14.1433 15.2598 13.9935 15.7092 13.6938L16.2908 13.3062C16.7402 13.0065 16.965 12.8567 17.2081 12.7506C17.4239 12.6563 17.65 12.5879 17.8819 12.5466C18.143 12.5 18.4131 12.5 18.9533 12.5H22.5" stroke="#120C1E" strokeWidth="2" strokeLinecap="round" strokeLinejoin="round"/>
<path d="M19.3 20C20.4201 20 20.9802 20 21.408 19.782C21.7843 19.5903 22.0903 19.2843 22.282 18.908C22.5 18.4802 22.5 17.9201 22.5 16.8V7.2C22.5 6.0799 22.5 5.51984 22.282 5.09202C22.0903 4.7157 21.7843 4.40974 21.408 4.21799C20.9802 4 20.4201 4 19.3 4H5.7C4.5799 4 4.01984 4 3.59202 4.21799C3.2157 4.40973 2.90973 4.71569 2.71799 5.09202C2.5 5.51984 2.5 6.07989 2.5 7.2V16.8C2.5 17.9201 2.5 18.4802 2.71799 18.908C2.90973 19.2843 3.21569 19.5903 3.59202 19.782C4.01984 20 4.57989 20 5.7 20H19.3Z" stroke="#120C1E" strokeWidth="2" strokeLinecap="round" strokeLinejoin="round"/>
</svg>
